<svg viewBox="0 0 64 64" fill="none" xmlns="http://www.w3.org/2000/svg">
  <defs>
    <linearGradient id="locusGradient" x1="0%" y1="0%" x2="0%" y2="100%">
      <stop offset="0%" stopColor="#6FA8FF" />
      <stop offset="50%" stopColor="#1E5ED8" />
      <stop offset="100%" stopColor="#0A3D91" />
    </linearGradient>
  </defs>
  <path
    d="M32 8C24 8 18 14 18 22C18 30 32 56 32 56C32 56 46 30 46 22C46 14 40 8 32 8Z"
    fill="url(#locusGradient)"
  />
  <g id="inner-elements">
    <path d="M32 20L26 26H38L32 20Z" fill="white" />
    <rect x="26" y="26" width="12" height="10" fill="white" />
    <rect x="27.5" y="27.5" width="3" height="3" fill="#E0E7FF" />
    <rect x="33.5" y="27.5" width="3" height="3" fill="#E0E7FF" />
    <rect x="27.5" y="31.5" width="3" height="3" fill="#E0E7FF" />
    <rect x="33.5" y="31.5" width="3" height="3" fill="#E0E7FF" />
    <path
      d="M32 23.5C30.5 23.5 29.5 24.5 29.5 26C29.5 27.5 30.5 28.5 32 28.5C33.5 28.5 34.5 27.5 34.5 26C34.5 24.5 33.5 23.5 32 23.5Z"
      fill="#60A5FA"
    />
    <path
      d="M32 28.5C29.5 28.5 27.5 30.5 27.5 33V35C27.5 36.5 29 37.5 30.5 37.5H33.5C35 37.5 36.5 36.5 36.5 35V33C36.5 30.5 34.5 28.5 32 28.5Z"
      fill="#60A5FA"
    />
  </g>
  <circle
    cx="32"
    cy="24"
    r="1.8"
    fill="#0A3D91"
    fillOpacity="0.7"
  />
</svg>
